# xmcd
#
# Track frame offsets:
#	150
#	9173
#	18271
#	29829
#	39924
#	51497
#	63715
#	73518
#	83868
#	100563
#	116411
#	126244
#	135394
#	154459
#	167007
#	178115
#
# Disc length: 2574 seconds
#
# Revision: 0
# Processed by: cddbd v1.5.2PL0 Copyright (c) Steve Scherf et al.
# Submitted via: audiograbber 1.83.01
#
DISCID=d30a0c10
DTITLE=Hank Thompson - At The State Fair Of Texas
DYEAR=1963
DGENRE=Country
TTITLE0=Welcome To The Fair-"Big Tex"
TTITLE1=Deep In The Heart Of Texas
TTITLE2=My Heart Is A Playground
TTITLE3=Charmaine
TTITLE4=Hank Visits The Midway
TTITLE5=How Many Teardrops Will It Take
TTITLE6=The New Wears Off Too Fast
TTITLE7=Rub-A-Dub-Dub
TTITLE8=At The Sideshows With Hank
TTITLE9=Beautiful Texas
TTITLE10=We Will Start It All Over Again
TTITLE11=River Road Two-Step
TTITLE12=Thrilling Sounds Of The Football Game
TTITLE13=I Cast A Lonesome Shadow
TTITLE14=Simple Simon
TTITLE15=There's A Little Bit Of Everything In Texas
EXTD=
EXTT0=
EXTT1=
EXTT2=
EXTT3=
EXTT4=
EXTT5=
EXTT6=
EXTT7=
EXTT8=
EXTT9=
EXTT10=
EXTT11=
EXTT12=
EXTT13=
EXTT14=
EXTT15=
PLAYORDER=
